# xmcd
# 
# Track frame offsets:
#     182
#     6737
#     31665
#     64282
#     80050
#     95607
#     122202
#     158672
#     178437
# 
# Disc length: 2528
# 
# Revision: 3
# Processed by: cddbd v1.5.2PL0 Copyright (c) Steve Scherf et al.
# Submitted via: fre:ac v1.0.17
# 
DISCID=7b09de09
DTITLE=Bahia Black - Ritual Beating System
DYEAR=1992
DGENRE=Latin
TTITLE0=Retrato Calado
TTITLE1=Capitao Do Asfalto
TTITLE2=The Seven Powers
TTITLE3=Uma Viagen Del Baldes De Larry Wright
TTITLE4=Olodum
TTITLE5=Guia pro Congal
TTITLE6=Gwagwa O De
TTITLE7=Follow Me
TTITLE8=Nina In The Womb Of The Forest
EXTD=
EXTT0=
EXTT1=
EXTT2=
EXTT3=
EXTT4=
EXTT5=
EXTT6=
EXTT7=
EXTT8=
PLAYORDER=
